<?xml version="1.0" encoding="UTF-8"?>
<svg width="60px" height="60px" viewBox="0 0 60 60" version="1.1" xmlns="http://www.w3.org/2000/svg" xmlns:xlink="http://www.w3.org/1999/xlink">
    <!-- Generator: Sketch 50.2 (55047) - http://www.bohemiancoding.com/sketch -->
    <title>Icon/24_AllSports@2x</title>
    <desc>Created with Sketch.</desc>
    <defs>
        <path d="M5,5 L5,17.5 L17.5,17.5 L17.5,5 L5,5 Z M0,0 L22.5,0 L22.5,22.5 L0,22.5 L0,0 Z M0,27.5 L22.5,27.5 L22.5,50 L0,50 L0,27.5 Z M5,32.5 L5,45 L17.5,45 L17.5,32.5 L5,32.5 Z M27.5,0 L50,0 L50,22.5 L27.5,22.5 L27.5,0 Z M32.5,5 L32.5,17.5 L45,17.5 L45,5 L32.5,5 Z M27.5,27.5 L50,27.5 L50,50 L27.5,50 L27.5,27.5 Z M32.5,32.5 L32.5,45 L45,45 L45,32.5 L32.5,32.5 Z" id="path-1"></path>
    </defs>
    <g id="Icon/24_AllSports" stroke="none" stroke-width="1" fill="none" fill-rule="evenodd">
        <g id="Color/BlackBlue" transform="translate(5.000000, 5.000000)">
            <mask id="mask-2" fill="white">
                <use xlink:href="#path-1"></use>
            </mask>
            <use id="Mask" fill="#1B1E25" fill-rule="nonzero" xlink:href="#path-1"></use>
            <g id="_Color/BlackBlue" mask="url(#mask-2)" fill="#1B1E25">
                <g transform="translate(-5.000000, -5.000000)" id="Rectangle-4">
                    <rect x="0" y="0" width="60" height="60"></rect>
                </g>
            </g>
        </g>
    </g>
</svg>