<?xml version="1.0" encoding="UTF-8"?>
<svg width="60px" height="60px" viewBox="0 0 60 60" version="1.1" xmlns="http://www.w3.org/2000/svg" xmlns:xlink="http://www.w3.org/1999/xlink">
    <!-- Generator: Sketch 50.2 (55047) - http://www.bohemiancoding.com/sketch -->
    <title>Icon/12_Ball-Bskt Copy@2x</title>
    <desc>Created with Sketch.</desc>
    <defs>
        <path d="M47.55,42.4848 C45.5088,39.6363 44.1453,35.3406 43.6863,32.6406 L51.4137,32.6406 C50.9547,35.3406 49.5912,39.6363 47.55,42.4848 Z M32.7,51.4137 L32.7,32.6406 L38.235,32.6406 C38.7534,38.0406 40.7676,42.6387 43.8213,46.551 C40.7271,49.1349 36.8985,50.8845 32.7,51.4137 Z M32.7,8.5863 C36.8985,9.1155 40.7271,10.8057 43.8213,13.3896 C40.7676,17.3019 38.7534,21.8406 38.235,27.2406 L32.7,27.2406 L32.7,8.5863 Z M51.4137,27.2406 L43.6863,27.2406 C44.1453,24.5406 45.5088,20.2449 47.55,17.3964 C49.5912,20.2449 50.9547,24.5406 51.4137,27.2406 Z M27.3,27.2406 L21.765,27.2406 C21.2466,21.8406 19.2324,17.3019 16.1787,13.3896 C19.2729,10.8057 23.1015,9.1155 27.3,8.5863 L27.3,27.2406 Z M27.3,51.4137 C23.1015,50.8845 19.2729,49.1349 16.1787,46.551 C19.2324,42.6387 21.2466,38.0406 21.765,32.6406 L27.3,32.6406 L27.3,51.4137 Z M8.5863,32.6406 L16.3137,32.6406 C15.8547,35.3406 14.4912,39.6363 12.45,42.4848 C10.4088,39.6363 9.0453,35.3406 8.5863,32.6406 Z M12.45,17.3964 C14.4912,20.2449 15.8547,24.5406 16.3137,27.2406 L8.5863,27.2406 C9.0453,24.5406 10.4088,20.2449 12.45,17.3964 Z M51.2787,13.4193 C50.1663,11.9937 48.9216,10.6815 47.55,9.507 C42.8277,5.4597 36.7068,3 30,3 C23.2932,3 17.1723,5.4597 12.45,9.507 C11.0784,10.6815 9.8337,11.9937 8.7213,13.4193 C5.1492,17.9985 3,23.7414 3,30 C3,36.2586 5.1492,42.0015 8.7213,46.5807 C9.8337,48.0063 11.0784,49.3185 12.45,50.493 C17.1723,54.5403 23.2932,57 30,57 C36.7068,57 42.8277,54.5403 47.55,50.493 C48.9216,49.3185 50.1663,48.0063 51.2787,46.5807 C54.8508,42.0015 57,36.2586 57,30 C57,23.7414 54.8508,17.9985 51.2787,13.4193 Z" id="path-1"></path>
    </defs>
    <g id="Icon/12_Ball-Bskt-Copy" stroke="none" stroke-width="1" fill="none" fill-rule="evenodd">
        <mask id="mask-2" fill="white">
            <use xlink:href="#path-1"></use>
        </mask>
        <use id="Mask" fill="#353A45" fill-rule="nonzero" xlink:href="#path-1"></use>
        <g id="_Color/BlackBlue" mask="url(#mask-2)" fill="#1B1E25">
            <rect id="Rectangle-4" x="0" y="0" width="60" height="60"></rect>
        </g>
    </g>
</svg>