<svg width="22" height="20" viewBox="0 0 22 20" fill="none" xmlns="http://www.w3.org/2000/svg">
<path d="M20.9864 0.250545C20.7263 0.250167 20.4662 0.350135 20.2696 0.55132C16.5234 4.30295 12.7763 8.05247 9.02839 11.8003C8.71539 12.1133 8.25544 12.1133 7.94246 11.8003L5.70124 9.55816C5.30807 9.15566 4.66062 9.15647 4.26862 9.56005C3.88466 9.9555 3.89184 10.588 4.28563 10.9731L6.52782 13.2153C7.59982 14.2873 9.37085 14.2873 10.4429 13.2153C14.1934 9.46913 17.9345 5.71346 21.6841 1.9663C22.0783 1.58113 22.0865 0.949644 21.703 0.554192C21.5069 0.352403 21.2465 0.250923 20.9864 0.250545ZM3.01569 2.74957C1.37099 2.74957 0.0147095 4.10585 0.0147095 5.75055V16.7496C0.0147095 18.3943 1.37099 19.7496 3.01569 19.7496H14.0147C15.6594 19.7496 17.0157 18.3943 17.0157 16.7496V11.4644C17.0232 10.9018 16.5627 10.4445 16.0001 10.4527C15.4489 10.4603 15.0082 10.9132 15.0147 11.4644V16.7496C15.0147 17.3209 14.586 17.7496 14.0147 17.7496H3.01569C2.4444 17.7496 2.01569 17.3209 2.01569 16.7496V5.75055C2.01569 5.17926 2.4444 4.74956 3.01569 4.74956H12.8233C13.3859 4.75712 13.8433 4.29655 13.835 3.73395C13.8275 3.18282 13.3745 2.74307 12.8233 2.74957H3.01569Z" fill="#40BABA"/>
</svg>
