<?xml version="1.0" encoding="UTF-8"?>
<svg width="60px" height="60px" viewBox="0 0 60 60" version="1.1" xmlns="http://www.w3.org/2000/svg" xmlns:xlink="http://www.w3.org/1999/xlink">
    <!-- Generator: Sketch 50.2 (55047) - http://www.bohemiancoding.com/sketch -->
    <title>Icon/EPL@2x</title>
    <desc>Created with Sketch.</desc>
    <defs></defs>
    <g id="Icon/EPL" stroke="none" stroke-width="1" fill="none" fill-rule="evenodd">
        <path d="M51.7796504,33.3465287 L44.0424908,29.4778635 L43.4775602,29.1955689 L39.7684752,17.1925861 L44.1295345,12.8316974 C48.8894587,16.8404858 51.9477642,22.8067331 52.0534113,29.4778635 C52.0551181,29.5963112 52.0583609,29.7147589 52.0583609,29.8337186 C52.0583609,31.0289479 51.9622715,32.2019895 51.7796504,33.3465287 Z M29.8337186,36.0440295 L21.3044615,29.5282123 L21.3199928,29.4778635 L24.6119508,18.8250818 L35.0554863,18.8250818 L38.3474444,29.4778635 L38.3629757,29.5282123 L29.8337186,36.0440295 Z M9.19019926,32.6954078 L7.88778679,33.3465287 C7.70516572,32.2019895 7.60907632,31.0289479 7.60907632,29.8337186 C7.60907632,23.2658459 10.4738376,17.3550676 15.0183713,13.2827885 L19.8590243,17.3217862 L16.1898769,29.1955689 L15.6249464,29.4778635 L9.19019926,32.6954078 Z M29.8337186,7.60907632 C33.4518344,7.60907632 36.8706032,8.4786598 39.8925551,10.0189917 L36.0711667,13.8402095 L23.4672411,13.8402095 L19.2309444,10.3053825 C22.3841445,8.58669638 25.9969695,7.60907632 29.8337186,7.60907632 Z M56.4956373,29.5094011 C56.4972406,29.6332128 56.5002691,29.7566682 56.5002691,29.8808362 C56.5002691,33.5950097 55.7360212,37.133709 54.3580591,40.3496071 L50.5268435,40.3496071 C50.8086711,39.794503 51.0714369,39.2285321 51.308906,38.6492001 L41.7007602,33.8451272 L33.1864331,40.3496071 L26.4810041,40.3496071 L17.9666769,33.8451272 L8.35853115,38.6492001 C10.4435562,43.7370601 14.285995,47.9252811 19.1265879,50.4549594 L19.1265879,54.300783 C14.7876552,52.3908759 11.0510352,49.3581122 8.28638188,45.5717895 C5.06905861,41.1658737 3.16716807,35.7416733 3.16716807,29.8808362 C3.16716807,15.1768138 15.1296962,3.21428571 29.8337186,3.21428571 C44.413573,3.21428571 56.2959352,14.9760429 56.4956373,29.5094011 Z M32.2303275,44.4614675 L25.3954441,44.4614675 L25.3954441,47.2041835 L31.6695165,47.2041835 L31.6695165,49.4474273 L25.3954441,49.4474273 L25.3954441,52.7684796 L32.5457836,52.7684796 L32.5457836,55.0905874 L22.7578801,55.0905874 L22.7578801,42.1744103 L32.2303275,42.1744103 L32.2303275,44.4614675 Z M43.4377837,49.5000033 C42.6666648,50.1309187 41.5655001,50.4463718 40.1342567,50.4463718 L37.3915407,50.4463718 L37.3915407,55.0905874 L34.7101634,55.0905874 L34.7101634,42.1744103 L40.3357981,42.1744103 C41.6326799,42.1744103 42.6666648,42.5073885 43.4377837,43.1733548 C44.2089026,43.8393212 44.5944562,44.8703851 44.5944562,46.2665777 C44.5944562,47.7912901 44.2089026,48.8690878 43.4377837,49.5000033 Z M41.3917,44.847025 C41.0382705,44.5607763 40.5431845,44.4176541 39.9064272,44.4176541 L37.3915407,44.4176541 L37.3915407,48.2206533 L39.9064272,48.2206533 C40.5431845,48.2206533 41.0382705,48.0658477 41.3917,47.7562318 C41.7451295,47.4466158 41.9218416,46.9559112 41.9218416,46.284103 C41.9218416,45.6122949 41.7451295,45.1332737 41.3917,44.847025 Z M46.6186332,42.1744103 L49.3175359,42.1744103 L49.3175359,52.7684796 L55.7142857,52.7684796 L55.7142857,55.0905874 L46.6186332,55.0905874 L46.6186332,42.1744103 Z" id="Combined-Shape" fill="#1B1E25"></path>
    </g>
</svg>