<?xml version="1.0" encoding="UTF-8"?>
<svg width="28px" height="28px" viewBox="0 0 28 28" version="1.1" xmlns="http://www.w3.org/2000/svg" xmlns:xlink="http://www.w3.org/1999/xlink">
    <!-- Generator: Sketch 50.2 (55047) - http://www.bohemiancoding.com/sketch -->
    <title>Icon/12_Ball-Tennis Copy@2x</title>
    <desc>Created with Sketch.</desc>
    <defs>
        <path d="M4.81477668,8.91598447 C7.07798212,9.49958207 8.75,11.5545307 8.75,14 L6.65,14 C6.65,12.4205642 5.48756369,11.11263 3.97155276,10.885059 C3.6651272,11.8696232 3.5,12.9158798 3.5,14 C3.5,19.79 8.21,24.5 14,24.5 C19.79,24.5 24.5,19.79 24.5,14 C24.5,8.21 19.79,3.5 14,3.5 C12.915837,3.5 11.8695406,3.66514024 10.8849424,3.97158905 C10.9513167,4.41503779 11.1110364,4.8350073 11.3536865,5.20958382 C11.931451,6.101473 12.9181696,6.65 14,6.65 C18.0592929,6.65 21.35,9.94070709 21.35,14 C21.35,18.0592929 18.0592929,21.35 14,21.35 C9.94070709,21.35 6.65,18.0592929 6.65,14 L8.75,14 C8.75,16.8994949 11.1005051,19.25 14,19.25 C16.8994949,19.25 19.25,16.8994949 19.25,14 C19.25,11.1005051 16.8994949,8.75 14,8.75 C12.1986696,8.75 10.5520681,7.83463735 9.59118403,6.35133029 C9.28438232,5.8777236 9.0567501,5.3595905 8.91619824,4.8146579 C7.19587763,5.77053532 5.77069297,7.19568832 4.81477668,8.91598447 Z M14,26.6 C7.052675,26.6 1.4,20.947325 1.4,14 C1.4,7.052675 7.052675,1.4 14,1.4 C20.947325,1.4 26.6,7.052675 26.6,14 C26.6,20.947325 20.947325,26.6 14,26.6 Z" id="path-1"></path>
    </defs>
    <g id="Icon/12_Ball-Tennis-Copy" stroke="none" stroke-width="1" fill="none" fill-rule="evenodd">
        <mask id="mask-2" fill="white">
            <use xlink:href="#path-1"></use>
        </mask>
        <use id="Mask" fill="#353A45" fill-rule="nonzero" xlink:href="#path-1"></use>
        <g id="_Color/BlackBlue" mask="url(#mask-2)" fill="#1B1E25">
            <rect id="Rectangle-4" x="0" y="0" width="28.0400572" height="27.9500891"></rect>
        </g>
    </g>
</svg>