<?xml version="1.0" encoding="UTF-8"?>
<svg width="60px" height="60px" viewBox="0 0 60 60" version="1.1" xmlns="http://www.w3.org/2000/svg" xmlns:xlink="http://www.w3.org/1999/xlink">
    <!-- Generator: Sketch 50.2 (55047) - http://www.bohemiancoding.com/sketch -->
    <title>Icon/24_Home-Sports Copy@2x</title>
    <desc>Created with Sketch.</desc>
    <defs>
        <path d="M30,55 C16.1928813,55 5,43.8071187 5,30 C5,16.1928813 16.1928813,5 30,5 C43.8071187,5 55,16.1928813 55,30 C55,43.8071187 43.8071187,55 30,55 Z M46.625424,17.0714398 C44.4549807,14.251067 41.717816,12.089102 38.4152344,10.6789156 L29.9214183,14.9094748 L21.5227886,10.6789156 C18.2197721,12.089102 15.3883391,14.251067 13.2178958,17.0714398 L14.8220525,17.9175516 L14.8220525,26.941782 L8.87700933,31.3595639 C9.16015262,35.2137525 10.3869459,38.785952 12.5573892,41.9821659 L20.8617988,41.9821659 L23.7874519,49.5023579 L23.8816719,50.0659993 C25.769455,50.7244072 27.750975,51.0063963 29.9214183,51.0063963 C31.8092014,51.0063963 33.7907214,50.7244072 35.9611646,50.0659993 L35.6780697,49.5023579 L38.9810378,41.9821659 L46.9085673,41.9821659 C49.3621538,38.785952 50.5889471,35.2137525 50.5889471,31.3595639 L45.0207842,26.941782 L44.6434208,17.9175516 L46.625424,17.0714398 Z M25.5467256,35.588938 L22.429381,27.7819584 L29.9108255,22.9025394 L36.6799687,27.7819584 L34.3643052,35.588938 L25.1905749,35.588938 L25.5467256,35.588938 Z" id="path-1"></path>
    </defs>
    <g id="Icon/24_Home-Sports-Copy" stroke="none" stroke-width="1" fill="none" fill-rule="evenodd">
        <mask id="mask-2" fill="white">
            <use xlink:href="#path-1"></use>
        </mask>
        <use id="Mask" fill="#1B1E25" fill-rule="nonzero" xlink:href="#path-1"></use>
        <g id="_Color/BlackBlue" mask="url(#mask-2)" fill="#1B1E25">
            <rect id="Rectangle-4" x="0" y="0" width="60" height="60"></rect>
        </g>
    </g>
</svg>