<svg width="294" height="115" viewBox="0 0 294 115" fill="none" xmlns="http://www.w3.org/2000/svg">
<path d="M168.804 46.0071L169.222 47.4477L168.804 46.0071ZM285.762 113.412C285.293 114.095 284.359 114.268 283.677 113.799L272.55 106.153C271.867 105.684 271.694 104.75 272.163 104.067C272.633 103.385 273.566 103.212 274.249 103.681L284.139 110.477L290.935 100.586C291.404 99.9037 292.338 99.7306 293.021 100.2C293.704 100.669 293.877 101.603 293.408 102.285L285.762 113.412ZM40.3597 2.82694L40.6331 4.30181L40.3597 2.82694ZM-49.0445 27.7502L-49.2249 29.2394L-49.0445 27.7502ZM168.386 44.5666C193.143 37.3792 212.946 37.952 228.725 42.9618C244.501 47.9707 256.131 57.3757 264.609 67.6502C273.08 77.9155 278.421 89.0652 281.644 97.6299C283.257 101.916 284.343 105.566 285.027 108.15C285.37 109.443 285.612 110.47 285.769 111.177C285.847 111.531 285.905 111.805 285.943 111.992C285.962 112.086 285.976 112.158 285.986 112.208C285.99 112.233 285.994 112.252 285.997 112.266C285.998 112.272 285.999 112.278 286 112.282C286 112.283 286 112.285 286.001 112.286C286.001 112.288 286.001 112.289 284.526 112.562C283.051 112.836 283.051 112.836 283.051 112.836C283.051 112.836 283.051 112.836 283.051 112.835C283.051 112.833 283.05 112.829 283.049 112.825C283.047 112.815 283.045 112.8 283.04 112.779C283.032 112.738 283.02 112.674 283.003 112.589C282.968 112.419 282.914 112.163 282.84 111.827C282.691 111.156 282.459 110.169 282.127 108.919C281.465 106.417 280.408 102.865 278.836 98.6864C275.689 90.322 270.493 79.4931 262.295 69.5596C254.106 59.6353 242.936 50.6214 227.817 45.8212C212.702 41.0219 193.515 40.3952 169.222 47.4477L168.386 44.5666ZM40.0863 1.35207C55.2507 -1.45935 64.9966 1.71986 72.5263 7.78475C76.2393 10.7755 79.3646 14.428 82.3146 18.266C85.3416 22.2041 88.004 26.0823 91.1496 30.0537C97.2897 37.8058 104.497 44.8512 116.093 48.2952C127.731 51.7517 144.007 51.6441 168.386 44.5666L169.222 47.4477C144.551 54.6101 127.64 54.8542 115.239 51.1711C102.796 47.4755 95.1135 39.89 88.7979 31.9164C85.7156 28.0249 82.7588 23.7667 79.9361 20.0942C77.0364 16.3217 74.0814 12.8895 70.6444 10.1211C63.874 4.66773 55.0407 1.63072 40.6331 4.30181L40.0863 1.35207ZM-99.6768 9.6155C-98.9804 8.28693 -98.9805 8.28692 -98.9804 8.28696C-98.9802 8.28706 -98.98 8.28716 -98.9797 8.28735C-98.9789 8.28772 -98.9778 8.28833 -98.9762 8.28917C-98.9729 8.29086 -98.9679 8.29349 -98.9611 8.29704C-98.9475 8.30415 -98.9268 8.31495 -98.8991 8.32934C-98.8437 8.35811 -98.7605 8.40124 -98.6505 8.45785C-98.4307 8.57107 -98.1041 8.73818 -97.6803 8.95219C-96.8326 9.38023 -95.5961 9.99575 -94.0463 10.7428C-90.946 12.2373 -86.5959 14.2562 -81.5993 16.3529C-71.569 20.562 -59.0715 25.0251 -48.8642 26.2611L-49.2249 29.2394C-59.8684 27.9506 -72.6871 23.3463 -82.7602 19.1192C-87.8153 16.9979 -92.2137 14.9565 -95.349 13.4452C-96.917 12.6894 -98.1701 12.0656 -99.0325 11.6301C-99.4638 11.4124 -99.7974 11.2417 -100.024 11.125C-100.137 11.0666 -100.224 11.0218 -100.282 10.9914C-100.312 10.9761 -100.334 10.9645 -100.349 10.9566C-100.357 10.9526 -100.363 10.9496 -100.367 10.9475C-100.369 10.9465 -100.37 10.9456 -100.371 10.9451C-100.372 10.9448 -100.372 10.9445 -100.373 10.9444C-100.373 10.9442 -100.373 10.9441 -99.6768 9.6155ZM-48.8642 26.2611C-39.9916 27.3355 -33.7866 27.0009 -28.5539 25.7756C-23.3059 24.5467 -18.9463 22.4041 -13.7164 19.7018C-3.19627 14.266 10.308 6.87282 40.0863 1.35207L40.6331 4.30181C11.2673 9.74609 -1.93901 16.9931 -12.3393 22.367C-17.5695 25.0695 -22.2226 27.3741 -27.8699 28.6966C-33.5327 30.0226 -40.106 30.3435 -49.2249 29.2394L-48.8642 26.2611Z" fill="#A0BFB2"/>
</svg>
